<?xml version="1.0" standalone="no"?>
<!DOCTYPE svg PUBLIC "-//W3C//DTD SVG 20010904//EN"
 "http://www.w3.org/TR/2001/REC-SVG-20010904/DTD/svg10.dtd">
<svg version="1.0" xmlns="http://www.w3.org/2000/svg"
 width="1280.000000pt" height="1034.000000pt" viewBox="0 0 1280.000000 1034.000000"
 preserveAspectRatio="xMidYMid meet">
<g transform="translate(0.000000,1034.000000) scale(0.100000,-0.100000)"
fill="#000000" stroke="none">
<path d="M2692 10328 c-8 -8 -12 -63 -12 -180 0 -153 -2 -168 -17 -168 -28 0
-126 55 -256 141 -65 44 -123 79 -129 79 -21 0 -103 -52 -147 -94 -110 -104
-122 -262 -36 -491 l26 -70 405 -245 c222 -135 417 -255 432 -268 l27 -23 -37
15 c-20 8 -192 100 -382 205 -191 105 -351 191 -356 191 -17 0 202 -389 327
-583 l70 -108 464 -316 c255 -173 470 -321 478 -329 8 -7 12 -16 9 -19 -3 -3
-164 73 -358 170 -194 97 -354 174 -356 172 -2 -2 51 -73 118 -158 392 -499
758 -909 1209 -1354 405 -399 699 -650 997 -849 55 -36 104 -72 110 -79 50
-63 1062 -2052 1062 -2088 0 -13 -58 -27 -390 -89 -539 -102 -697 -132 -1665
-315 -1221 -231 -3468 -656 -3910 -740 -192 -36 -354 -70 -360 -76 -6 -6 -4
-14 5 -23 8 -7 805 -505 1770 -1106 1178 -733 1763 -1093 1780 -1092 14 1 628
138 1365 306 737 167 1540 348 1785 401 434 94 590 130 1700 388 765 178 776
181 794 174 16 -6 16 -40 10 -435 -8 -484 -10 -471 70 -537 268 -219 1213
-308 1914 -179 331 61 540 168 557 285 3 24 5 262 3 529 l-3 485 -27 13 c-16
7 -32 22 -38 32 -35 64 -182 134 -399 189 -80 20 -146 42 -149 49 -5 17 24 26
246 76 1001 227 1350 307 1370 316 12 5 22 14 22 19 0 12 266 -86 -2335 863
l-2220 810 -830 -156 c-456 -86 -848 -156 -870 -156 l-40 0 -260 522 c-143
287 -367 727 -497 978 -281 542 -296 579 -478 1230 -190 678 -331 1092 -516
1515 -67 154 -248 508 -329 645 -138 233 -427 641 -432 610 -1 -8 -7 -134 -13
-279 -19 -438 -35 -393 -46 127 l-7 313 -76 87 c-105 120 -257 266 -376 361
-100 80 -282 198 -291 188 -3 -2 0 -69 6 -148 22 -311 23 -329 13 -329 -9 0
-82 203 -182 500 -20 61 -26 65 -156 94 -83 19 -146 21 -163 4z"/>
</g>
</svg>
